<svg id="Component_1_5" data-name="Component 1 – 5" xmlns="http://www.w3.org/2000/svg" width="60" height="60" viewBox="0 0 60 60">
  <g id="Path_1" data-name="Path 1" fill="rgba(255,255,255,0)">
    <path d="M 30 57.5 C 26.28642082214355 57.5 22.68524932861328 56.77325057983398 19.29652976989746 55.33993911743164 C 16.02215003967285 53.95499038696289 13.08092021942139 51.9717903137207 10.5545597076416 49.44543838500977 C 8.028209686279297 46.9190788269043 6.045010089874268 43.97785186767578 4.660059928894043 40.70346832275391 C 3.226749897003174 37.31475067138672 2.5 33.71358108520508 2.5 30 C 2.5 26.28642082214355 3.226749897003174 22.68524932861328 4.660059928894043 19.29652976989746 C 6.045010089874268 16.02215003967285 8.028209686279297 13.08092021942139 10.5545597076416 10.5545597076416 C 13.08092021942139 8.028209686279297 16.02215003967285 6.045010089874268 19.29652976989746 4.660059928894043 C 22.68524932861328 3.226749897003174 26.28642082214355 2.5 30 2.5 C 33.71358108520508 2.5 37.31475067138672 3.226749897003174 40.70346832275391 4.660059928894043 C 43.97785186767578 6.045010089874268 46.9190788269043 8.028209686279297 49.44543838500977 10.5545597076416 C 51.9717903137207 13.08092021942139 53.95499038696289 16.02215003967285 55.33993911743164 19.29652976989746 C 56.77325057983398 22.68524932861328 57.5 26.28642082214355 57.5 30 C 57.5 33.71358108520508 56.77325057983398 37.31475067138672 55.33993911743164 40.70346832275391 C 53.95499038696289 43.97785186767578 51.9717903137207 46.9190788269043 49.44543838500977 49.44543838500977 C 46.9190788269043 51.9717903137207 43.97785186767578 53.95499038696289 40.70346832275391 55.33993911743164 C 37.31475067138672 56.77325057983398 33.71358108520508 57.5 30 57.5 Z" stroke="none"/>
    <path d="M 30 5 C 26.62282562255859 5 23.34931182861328 5.660301208496094 20.27041244506836 6.962574005126953 C 17.29402542114258 8.221473693847656 14.61989974975586 10.02476119995117 12.32233810424805 12.32233810424805 C 10.02476119995117 14.61989974975586 8.221473693847656 17.29402542114258 6.962574005126953 20.27041244506836 C 5.660301208496094 23.34931182861328 5 26.62282562255859 5 30 C 5 33.37717437744141 5.660301208496094 36.65068817138672 6.962574005126953 39.72958755493164 C 8.221473693847656 42.70597457885742 10.02476119995117 45.38010025024414 12.32233810424805 47.67766189575195 C 14.61989974975586 49.97523880004883 17.29402542114258 51.77852630615234 20.27041244506836 53.03742599487305 C 23.34931182861328 54.33969879150391 26.62282562255859 55 30 55 C 33.37717437744141 55 36.65068817138672 54.33969879150391 39.72958755493164 53.03742599487305 C 42.70597457885742 51.77852630615234 45.38010025024414 49.97523880004883 47.67766189575195 47.67766189575195 C 49.97523880004883 45.38010025024414 51.77852630615234 42.70597457885742 53.03742599487305 39.72958755493164 C 54.33969879150391 36.65068817138672 55 33.37717437744141 55 30 C 55 26.62282562255859 54.33969879150391 23.34931182861328 53.03742599487305 20.27041244506836 C 51.77852630615234 17.29402542114258 49.97523880004883 14.61989974975586 47.67766189575195 12.32233810424805 C 45.38010025024414 10.02476119995117 42.70597457885742 8.221473693847656 39.72958755493164 6.962574005126953 C 36.65068817138672 5.660301208496094 33.37717437744141 5 30 5 M 30 0 C 46.56853866577148 0 60 13.43146133422852 60 30 C 60 46.56853866577148 46.56853866577148 60 30 60 C 13.43146133422852 60 0 46.56853866577148 0 30 C 0 13.43146133422852 13.43146133422852 0 30 0 Z" stroke="none" fill="#fff"/>
  </g>
  <g id="Group_5" data-name="Group 5" transform="translate(1192.5 640) rotate(180)">
    <line id="Line_1" data-name="Line 1" x2="15" transform="translate(1153 610)" fill="none" stroke="#fff" stroke-width="5"/>
    <g id="Group_3" data-name="Group 3" transform="translate(-3 13)">
      <line id="Line_2" data-name="Line 2" x2="8" y2="10" transform="translate(1166.5 588.5)" fill="none" stroke="#fff" stroke-width="5"/>
      <line id="Line_3" data-name="Line 3" y1="10" x2="8" transform="translate(1166.5 595.5)" fill="none" stroke="#fff" stroke-width="5"/>
    </g>
  </g>
</svg>
